<?xml version="1.0" encoding="iso-8859-1"?>
<!-- Generator: Adobe Illustrator 19.0.0, SVG Export Plug-In . SVG Version: 6.00 Build 0)  -->
<svg version="1.1" id="Capa_1" xmlns="http://www.w3.org/2000/svg" xmlns:xlink="http://www.w3.org/1999/xlink" x="0px" y="0px"
	 viewBox="0 0 512 512" style="enable-background:new 0 0 512 512;" xml:space="preserve">
<path style="fill:#E0E0E3;" d="M256.52,62.129c-4.329,0-7.837-3.508-7.837-7.837V7.837c0-4.329,3.508-7.837,7.837-7.837
	c4.329,0,7.837,3.508,7.837,7.837v46.455C264.357,58.621,260.848,62.129,256.52,62.129z"/>
<g>
	<path style="fill:#83C9FF;" d="M400.031,320.565h-18.861c-4.329,0-7.837-3.508-7.837-7.837c0-4.329,3.508-7.837,7.837-7.837h18.861
		c4.329,0,7.837,3.508,7.837,7.837C407.868,317.058,404.36,320.565,400.031,320.565z"/>
	<path style="fill:#83C9FF;" d="M92.14,460.283H73.278c-4.329,0-7.837-3.508-7.837-7.837c0-4.329,3.508-7.837,7.837-7.837H92.14
		c4.329,0,7.837,3.508,7.837,7.837C99.977,456.775,96.469,460.283,92.14,460.283z"/>
	<path style="fill:#83C9FF;" d="M438.722,406.395h-40.976c-4.329,0-7.837-3.508-7.837-7.837s3.508-7.837,7.837-7.837h40.976
		c4.329,0,7.837,3.508,7.837,7.837S443.05,406.395,438.722,406.395z"/>
	<path style="fill:#83C9FF;" d="M400.903,446.265h-39.467c-4.329,0-7.837-3.508-7.837-7.837s3.508-7.837,7.837-7.837h39.467
		c4.329,0,7.837,3.508,7.837,7.837S405.232,446.265,400.903,446.265z"/>
	<path style="fill:#83C9FF;" d="M142.964,371.004h-39.468c-4.329,0-7.837-3.508-7.837-7.837c0-4.329,3.508-7.837,7.837-7.837h39.467
		c4.329,0,7.837,3.508,7.837,7.837C150.8,367.496,147.292,371.004,142.964,371.004z"/>
</g>
<path style="fill:#DEDEE1;" d="M381.687,184.55H131.354l-8.652-16.717c-1.799-3.477,0.724-7.626,4.64-7.626H385.7
	c3.915,0,6.44,4.148,4.64,7.626L381.687,184.55z"/>
<path style="fill:#CCCCCC;" d="M385.703,160.204c3.916,0,6.44,4.148,4.639,7.626l-2.353,4.547l-6.301,12.173H131.352l-6.301-12.173
	l-2.353-4.547c-1.8-3.477,0.724-7.626,4.639-7.626H385.703z"/>
<polygon style="fill:#81C7FF;" points="398.91,243.765 114.131,243.765 108.725,208.141 404.316,208.141 "/>
<polygon style="fill:#67B0E3;" points="110.685,221.054 114.131,243.765 398.91,243.765 402.356,221.054 "/>
<g>
	<path style="fill:#E0E0E3;" d="M386.642,160.204H126.399c-1.411,0-1.724-1.964-0.397-2.403l81.502-27.021
		c6.614-2.194,7.461-10.742,2.32-14.451c-0.596-0.439-1.275-0.805-2.027-1.087l-8.704-3.26c-0.031-0.01-0.063-0.021-0.094-0.042
		c-1.985-0.794-3.291-2.706-3.291-4.848v-4.598c0-2.884,2.341-5.224,5.224-5.224h111.177c2.884,0,5.224,2.341,5.224,5.224v4.598
		c0,2.142-1.306,4.054-3.291,4.848c-0.031,0.021-0.063,0.031-0.094,0.042l-8.704,3.26c-0.752,0.282-1.431,0.648-2.027,1.087
		c-5.141,3.709-4.295,12.257,2.32,14.451l81.502,27.021C388.365,158.239,388.051,160.204,386.642,160.204z"/>
	<path style="fill:#E0E0E3;" d="M288.566,77.912h-64.181c-1.576,0-3.068,0.712-4.06,1.936L206.216,97.27h100.52l-14.109-17.422
		C291.635,78.623,290.143,77.912,288.566,77.912z"/>
</g>
<g>
	<path style="fill:#CCCCCC;" d="M265.053,54.292H247.9c-2.41,0-4.506,1.648-5.076,3.988l-4.777,19.613h36.86l-4.777-19.613
		C269.559,55.94,267.461,54.292,265.053,54.292z"/>
	<path style="fill:#CCCCCC;" d="M317.333,102.494v4.598c0,2.142-1.306,4.054-3.291,4.848c-0.031,0.021-0.063,0.031-0.094,0.042
		l-8.704,3.26c-0.752,0.282-1.431,0.648-2.027,1.087h-93.393c-0.596-0.439-1.275-0.805-2.027-1.087l-8.704-3.26
		c-0.031-0.01-0.063-0.021-0.094-0.042c-1.985-0.794-3.291-2.706-3.291-4.848v-4.598c0-2.884,2.341-5.224,5.224-5.224h111.177
		C314.993,97.27,317.333,99.61,317.333,102.494z"/>
</g>
<g>
	<path style="fill:#67B0E3;" d="M146.238,251.602c-4.329,0-7.837-3.508-7.837-7.837v-35.625c0-4.329,3.508-7.837,7.837-7.837
		c4.329,0,7.837,3.508,7.837,7.837v35.625C154.074,248.094,150.566,251.602,146.238,251.602z"/>
	<path style="fill:#67B0E3;" d="M183.433,251.602c-4.329,0-7.837-3.508-7.837-7.837v-35.625c0-4.329,3.508-7.837,7.837-7.837
		c4.329,0,7.837,3.508,7.837,7.837v35.625C191.27,248.094,187.762,251.602,183.433,251.602z"/>
	<path style="fill:#67B0E3;" d="M220.63,251.602c-4.329,0-7.837-3.508-7.837-7.837v-35.625c0-4.329,3.508-7.837,7.837-7.837
		c4.329,0,7.837,3.508,7.837,7.837v35.625C228.467,248.094,224.958,251.602,220.63,251.602z"/>
	<path style="fill:#67B0E3;" d="M257.826,251.602c-4.329,0-7.837-3.508-7.837-7.837v-35.625c0-4.329,3.508-7.837,7.837-7.837
		c4.329,0,7.837,3.508,7.837,7.837v35.625C265.663,248.094,262.154,251.602,257.826,251.602z"/>
	<path style="fill:#67B0E3;" d="M295.022,251.602c-4.329,0-7.837-3.508-7.837-7.837v-35.625c0-4.329,3.508-7.837,7.837-7.837
		s7.837,3.508,7.837,7.837v35.625C302.858,248.094,299.351,251.602,295.022,251.602z"/>
	<path style="fill:#67B0E3;" d="M332.219,251.602c-4.329,0-7.837-3.508-7.837-7.837v-35.625c0-4.329,3.508-7.837,7.837-7.837
		s7.837,3.508,7.837,7.837v35.625C340.056,248.094,336.547,251.602,332.219,251.602z"/>
	<path style="fill:#67B0E3;" d="M369.415,251.602c-4.329,0-7.837-3.508-7.837-7.837v-35.625c0-4.329,3.508-7.837,7.837-7.837
		s7.837,3.508,7.837,7.837v35.625C377.252,248.094,373.743,251.602,369.415,251.602z"/>
</g>
<path style="fill:#BFBFBF;" d="M271.438,477.456c1.666,0,3.318-1.032,4.95-2.937V282.292h-29.7
	C246.688,282.292,253.561,477.456,271.438,477.456z"/>
<g>
	<path style="fill:#E0E0E3;" d="M340.844,282.29c0,0-4.033,21.222-9.738,52.402c-8.558,46.801-20.867,116.005-28.923,169.472
		h-56.748c-2.727-51.451-10.794-121.877-16.739-169.472c-3.887-31.065-6.855-52.402-6.855-52.402h24.848
		c0,0,0.794,22.591,2.55,52.402c3.396,57.804,10.407,142.764,22.194,142.764c15.151,0,29.247-84.961,37.073-142.764
		c4.044-29.811,6.416-52.402,6.416-52.402H340.844z"/>
	<path style="fill:#E0E0E3;" d="M225.393,504.163h-20.95c-3.981-43.415-11.013-108.481-21.786-169.472
		c-3.187-18.045-6.698-35.736-10.553-52.402H198.8c0,0,3.574,21.065,8.15,52.402C213.638,380.468,222.457,448.167,225.393,504.163z"
		/>
</g>
<g>
	<path style="fill:#CCCCCC;" d="M198.8,282.29c0,0,3.574,21.065,8.15,52.402h-24.294c-3.187-18.045-6.698-35.736-10.553-52.402
		H198.8z"/>
	<path style="fill:#CCCCCC;" d="M246.688,282.29c0,0,0.794,22.591,2.55,52.402h-20.543c-3.887-31.065-6.855-52.402-6.855-52.402
		H246.688z"/>
	<path style="fill:#CCCCCC;" d="M340.844,282.29c0,0-4.033,21.222-9.738,52.402h-22.601c4.044-29.811,6.416-52.402,6.416-52.402
		H340.844z"/>
</g>
<g>
	<path style="fill:#A5A5A5;" d="M248.13,314.587h28.254c4.336,0,7.837-3.511,7.837-7.837c0-4.326-3.5-7.837-7.837-7.837h-28.641
		c-0.125,0-0.24,0-0.366,0.021L248.13,314.587z"/>
	<path style="fill:#A5A5A5;" d="M249.708,342.528h26.676c4.336,0,7.837-3.511,7.837-7.837s-3.5-7.837-7.837-7.837h-27.146
		c-0.146,0-0.303,0-0.449,0.021L249.708,342.528z"/>
	<path style="fill:#A5A5A5;" d="M251.62,370.469h24.764c4.336,0,7.837-3.511,7.837-7.837s-3.5-7.837-7.837-7.837h-25.339
		c-0.178,0-0.366,0.01-0.543,0.031L251.62,370.469z"/>
	<path style="fill:#A5A5A5;" d="M253.981,398.409h22.403c4.336,0,7.837-3.511,7.837-7.837c0-4.326-3.5-7.837-7.837-7.837h-23.333
		c-0.157,0-0.303,0-0.46,0.021L253.981,398.409z"/>
	<path style="fill:#A5A5A5;" d="M257.011,426.35h19.372c4.336,0,7.837-3.511,7.837-7.837s-3.5-7.837-7.837-7.837h-20.313
		c-0.293,0-0.575,0.01-0.857,0.052L257.011,426.35z"/>
</g>
<path style="fill:#CCCCCC;" d="M352.121,512H161.696c-4.329,0-7.837-3.508-7.837-7.837s3.508-7.837,7.837-7.837h190.425
	c4.329,0,7.837,3.508,7.837,7.837S356.449,512,352.121,512z"/>
<rect id="SVGCleanerId_0" x="138.407" y="221.059" style="fill:#5A97C2;" width="15.673" height="22.706"/>
<rect id="SVGCleanerId_1" x="175.595" y="221.059" style="fill:#5A97C2;" width="15.673" height="22.706"/>
<rect id="SVGCleanerId_2" x="212.793" y="221.059" style="fill:#5A97C2;" width="15.673" height="22.706"/>
<rect id="SVGCleanerId_3" x="249.992" y="221.059" style="fill:#5A97C2;" width="15.673" height="22.706"/>
<rect id="SVGCleanerId_4" x="287.19" y="221.059" style="fill:#5A97C2;" width="15.673" height="22.706"/>
<rect id="SVGCleanerId_5" x="324.389" y="221.059" style="fill:#5A97C2;" width="15.673" height="22.706"/>
<rect id="SVGCleanerId_6" x="361.576" y="221.059" style="fill:#5A97C2;" width="15.673" height="22.706"/>
<g>
	<rect id="SVGCleanerId_0_1_" x="138.407" y="221.059" style="fill:#5A97C2;" width="15.673" height="22.706"/>
</g>
<g>
	<rect id="SVGCleanerId_1_1_" x="175.595" y="221.059" style="fill:#5A97C2;" width="15.673" height="22.706"/>
</g>
<g>
	<rect id="SVGCleanerId_2_1_" x="212.793" y="221.059" style="fill:#5A97C2;" width="15.673" height="22.706"/>
</g>
<g>
	<rect id="SVGCleanerId_3_1_" x="249.992" y="221.059" style="fill:#5A97C2;" width="15.673" height="22.706"/>
</g>
<g>
	<rect id="SVGCleanerId_4_1_" x="287.19" y="221.059" style="fill:#5A97C2;" width="15.673" height="22.706"/>
</g>
<g>
	<rect id="SVGCleanerId_5_1_" x="324.389" y="221.059" style="fill:#5A97C2;" width="15.673" height="22.706"/>
</g>
<g>
	<rect id="SVGCleanerId_6_1_" x="361.576" y="221.059" style="fill:#5A97C2;" width="15.673" height="22.706"/>
</g>
<path style="fill:#DEDEE1;" d="M421.533,246.839c-38.397-6.751-77.31-10.145-116.296-10.145h-94.821
	c-38.986,0-77.897,3.395-116.294,10.145l-1.022,0.18c-4.63,0.814-5.935,6.883-2.018,9.481c25.285,16.77,55.032,25.792,85.557,25.792
	h162.375c30.526,0,60.272-9.022,85.557-25.792c3.917-2.598,2.611-8.667-2.018-9.481L421.533,246.839z"/>
<path style="fill:#BFBFBF;" d="M210.415,256.358c-35.319,0-70.577,2.796-105.446,8.339c21.999,11.491,46.57,17.594,71.67,17.594
	h162.375c25.099,0,49.67-6.103,71.67-17.594c-34.87-5.543-70.127-8.339-105.446-8.339H210.415L210.415,256.358z"/>
<path style="fill:#E0E0E3;" d="M407.143,184.55H108.508c-11.72,0-23.276,2.397-33.973,7.001c-4.256,1.832-4.25,7.828,0.011,9.649
	c10.687,4.565,22.221,6.941,33.916,6.941h298.726c11.694,0,23.229-2.376,33.916-6.941c4.261-1.82,4.268-7.817,0.012-9.649
	C430.42,186.947,418.863,184.55,407.143,184.55z"/>
<g>
</g>
<g>
</g>
<g>
</g>
<g>
</g>
<g>
</g>
<g>
</g>
<g>
</g>
<g>
</g>
<g>
</g>
<g>
</g>
<g>
</g>
<g>
</g>
<g>
</g>
<g>
</g>
<g>
</g>
</svg>
